name C:\Users\tom_v\MusculoskeletalSpecialization_revisited\Results\Case_14\motion.mot
datacolumns 32
datarows 11
range 0.42119574 0.47735517
endheader 
time	pelvis_tilt	pelvis_list	pelvis_rotation	pelvis_tx	pelvis_ty	pelvis_tz	hip_flexion_r	hip_adduction_r	hip_rotation_r	knee_angle_r	ankle_angle_r	subtalar_angle_r	mtp_angle_r	hip_flexion_l	hip_adduction_l	hip_rotation_l	knee_angle_l	ankle_angle_l	subtalar_angle_l	mtp_angle_l	lumbar_extension	lumbar_bending	lumbar_rotation	arm_flex_r	arm_add_r	arm_rot_r	elbow_flex_r	arm_flex_l	arm_add_l	arm_rot_l	elbow_flex_l	
          0.42119574	         -8.34892743	          0.09288665	         -0.93526591	          1.39065069	          0.95256643	         -0.00241439	         37.75736562	         -0.39980333	         -4.38836289	        -63.52249505	         15.09022635	          1.07120537	          2.02768374	         12.43287035	          4.77491030	          5.63415034	        -36.79474188	         14.09912557	         -4.34013405	         23.88594756	        -11.10446966	         -0.46172171	         -1.72765321	         -4.97609020	         -7.87333268	         -9.42899333	         60.35440442	         -2.53890890	        -25.55101258	         19.39976849	         66.55713918	
          0.42681168	         -8.38600522	         -0.08547054	         -0.91841418	          1.40932979	          0.95429567	         -0.00244868	         38.80808593	         -0.12088946	         -4.38032281	        -62.68127090	         14.68746752	          0.61497087	          1.88914613	         11.01671105	          4.32059587	          5.21537439	        -36.02491064	         12.61272515	         -3.68747026	         25.16838894	        -11.12772860	         -0.07789695	         -1.89367290	         -6.03659575	         -7.77127313	        -10.00636040	         63.19278341	         -3.23413643	        -26.10563356	         19.39440937	         69.28847809	
          0.43242762	         -8.42050822	         -0.26173562	         -0.90144612	          1.42811785	          0.95600267	         -0.00247734	         39.78625002	          0.15732154	         -4.34892449	        -61.72588806	         14.13801741	          0.16641165	          1.76053755	          9.60882018	          3.86648652	          4.78106156	        -35.25399789	         10.98321929	         -3.02524951	         26.45943431	        -11.13784880	          0.30506712	         -2.05337864	         -7.03826328	         -7.68688653	        -10.50920469	         65.83095706	         -3.89121275	        -26.59838406	         19.38172685	         71.81246216	
          0.43804357	         -8.45205285	         -0.43486589	         -0.88475713	          1.44700819	          0.95766173	         -0.00250014	         40.69117188	          0.43479211	         -4.28986692	        -60.66028424	         13.44971340	         -0.27423836	          1.64086431	          8.21708604	          3.41765416	          4.34314733	        -34.49690147	          9.21452632	         -2.35663179	         27.75019345	        -11.13540710	          0.68524593	         -2.20689596	         -7.97377676	         -7.62090020	        -10.94729925	         68.25056731	         -4.50633110	        -27.02816332	         19.36763774	         74.11620401	
          0.44365951	         -8.48057785	         -0.60544902	         -0.86861736	          1.46598334	          0.95924560	         -0.00251627	         41.52364351	          0.71271008	         -4.20040279	        -59.48809170	         12.63224051	         -0.70739544	          1.52928337	          6.85810844	          2.97724504	          3.91381240	        -33.78147682	          7.31045578	         -1.68476409	         29.02649775	        -11.12283535	          1.06225577	         -2.35327592	         -8.83651331	         -7.57442616	        -11.32905247	         70.43931505	         -5.07504204	        -27.39463556	         19.35575101	         76.19197344	
          0.44927545	         -8.50600620	         -0.76986646	         -0.85318140	          1.48501886	          0.96072729	         -0.00252750	         42.28667027	          0.98708226	         -4.07866742	        -58.21605577	         11.69682145	         -1.13305898	          1.42507714	          5.55326822	          2.55169155	          3.50427041	        -33.14635661	          5.36121430	         -0.97706125	         30.12728076	        -11.10402400	          1.43137307	         -2.49145122	         -9.62086340	         -7.54792438	        -11.66217692	         72.38982648	         -5.59229513	        -27.69851904	         19.34794031	         78.03551868	
          0.45489140	         -8.52839193	         -0.92393412	         -0.83800325	          1.50409129	          0.96208654	         -0.00253600	         42.98148974	          1.25367672	         -3.92261720	        -56.84873321	         10.65579939	         -1.55093044	          1.32774847	          4.32393310	          2.14343191	          3.11642580	        -32.62669230	          3.43797317	         -0.20430107	         30.92232745	        -11.08290226	          1.78756025	         -2.62045600	        -10.32209973	         -7.54115635	        -11.95336927	         74.09612808	         -6.05316275	        -27.94008418	         19.34462875	         79.64226680	
          0.46050734	         -8.54774093	         -1.06611009	         -0.82208393	          1.52318757	          0.96331397	         -0.00254166	         43.60095486	          1.51080980	         -3.73223044	        -55.37919283	          9.52288392	         -1.96117010	          1.23701874	          3.18649772	          1.75370883	          2.75481461	        -32.24375458	          1.53579190	          0.62189349	         31.39980433	        -11.06169052	          2.12783147	         -2.73908178	        -10.93654044	         -7.55372335	        -12.20742044	         75.54928174	         -6.45396281	        -28.11808448	         19.34511872	         81.00539712	
          0.46612328	         -8.56407495	         -1.19588057	         -0.80356184	          1.54230168	          0.96440516	         -0.00254206	         44.13478013	          1.75779840	         -3.50810008	        -53.80281618	          8.31379737	         -2.36307210	          1.15237922	          2.15140762	          1.38116986	          2.42074542	        -32.00411320	         -0.38241460	          1.48489575	         31.60509226	        -11.04150349	          2.44959339	         -2.84653045	        -11.46202725	         -7.58458339	        -12.42792120	         76.74037171	         -6.79238754	        -28.23130202	         19.34771085	         82.11858382	
          0.47173922	         -8.57731011	         -1.31289972	         -0.78025094	          1.56142990	          0.96535583	         -0.00253498	         44.57452824	          1.99418139	         -3.25058707	        -52.12646882	          7.04574375	         -2.75646411	          1.07358139	          1.22838414	          1.02436941	          2.11520637	        -31.91509191	         -2.34286265	          2.37088028	         31.56795737	        -11.02298342	          2.75044456	         -2.94182704	        -11.89797525	         -7.63248295	        -12.61817790	         77.66310000	         -7.06615076	        -28.27910545	         19.35138546	         82.97677546	
          0.47735517	         -8.58726000	         -1.41698346	         -0.74980440	          1.58056958	          0.96616124	         -0.00251792	         44.91373678	          2.21964592	         -2.95997489	        -50.36373326	          5.73801125	         -3.14089157	          1.00032617	          0.42746723	          0.68121551	          1.83845098	        -31.98502190	         -4.36821537	          3.27033559	         31.31032142	        -11.00633568	          3.02814672	         -3.02407967	        -12.24455816	         -7.69595811	        -12.78089839	         78.31295597	         -7.27277628	        -28.26174583	         19.35606764	         83.57595025	
